<svg width="20" height="16" viewBox="0 0 20 16" fill="none" xmlns="http://www.w3.org/2000/svg">
<path d="M3.125 0.5C2.77982 0.5 2.5 0.779822 2.5 1.125V2.78516L0.742188 5.12891L0.625 5.28516V5.5C0.625 6.52841 1.47159 7.375 2.5 7.375V14.875C2.5 15.2202 2.77982 15.5 3.125 15.5H11.875C12.2202 15.5 12.5 15.2202 12.5 14.875V9.875H13.75V14.875C13.75 15.2202 14.0298 15.5 14.375 15.5H16.875C17.2202 15.5 17.5 15.2202 17.5 14.875V7.375C18.5284 7.375 19.375 6.52841 19.375 5.5V5.28516L19.2578 5.12891L17.5 2.78516V1.125C17.5 0.779822 17.2202 0.5 16.875 0.5H3.125ZM3.75 1.75H16.25V2.375H3.75V1.75ZM3.4375 3.625H16.5625L18.0664 5.63672C17.998 5.9079 17.7932 6.125 17.5 6.125C17.3299 6.125 17.1762 6.05793 17.0638 5.94865C16.8658 5.75616 16.6511 5.5 16.375 5.5H16.125C15.8489 5.5 15.6342 5.75616 15.4362 5.94865C15.3238 6.05793 15.1701 6.125 15 6.125C14.8299 6.125 14.6762 6.05793 14.5638 5.94865C14.3658 5.75616 14.1511 5.5 13.875 5.5H13.625C13.3489 5.5 13.1342 5.75616 12.9362 5.94865C12.8238 6.05793 12.6701 6.125 12.5 6.125C12.3299 6.125 12.1762 6.05793 12.0638 5.94865C11.8658 5.75616 11.6511 5.5 11.375 5.5H11.125C10.8489 5.5 10.6342 5.75616 10.4362 5.94865C10.3238 6.05793 10.1701 6.125 10 6.125C9.82989 6.125 9.6762 6.05793 9.56379 5.94865C9.3658 5.75616 9.15114 5.5 8.875 5.5H8.625C8.34886 5.5 8.1342 5.75616 7.93621 5.94865C7.8238 6.05793 7.67011 6.125 7.5 6.125C7.32989 6.125 7.1762 6.05793 7.06379 5.94865C6.8658 5.75616 6.65114 5.5 6.375 5.5H6.125C5.84886 5.5 5.6342 5.75616 5.43621 5.94865C5.3238 6.05793 5.17011 6.125 5 6.125C4.82989 6.125 4.6762 6.05793 4.56379 5.94865C4.3658 5.75616 4.15114 5.5 3.875 5.5H3.625C3.34886 5.5 3.1342 5.75616 2.93621 5.94865C2.8238 6.05793 2.67011 6.125 2.5 6.125C2.20682 6.125 2.00195 5.9079 1.93359 5.63672L3.4375 3.625ZM3.75 6.88672C4.08305 7.18733 4.52058 7.375 5 7.375C5.31905 7.375 5.61954 7.29189 5.88304 7.14769C6.10794 7.0246 6.39206 7.0246 6.61696 7.14769C6.88046 7.29189 7.18095 7.375 7.5 7.375C7.81905 7.375 8.11954 7.29189 8.38304 7.14769C8.60794 7.0246 8.89206 7.0246 9.11696 7.14769C9.38046 7.29189 9.68095 7.375 10 7.375C10.319 7.375 10.6195 7.29189 10.883 7.14769C11.1079 7.0246 11.3921 7.0246 11.617 7.14769C11.8805 7.29189 12.181 7.375 12.5 7.375C12.819 7.375 13.1195 7.29189 13.383 7.14769C13.6079 7.0246 13.8921 7.0246 14.117 7.14769C14.3805 7.29189 14.681 7.375 15 7.375C15.4794 7.375 15.917 7.18733 16.25 6.88672V14.25H15V9.25C15 8.90482 14.7202 8.625 14.375 8.625H11.875C11.5298 8.625 11.25 8.90482 11.25 9.25V14.25H3.75V6.88672ZM5.625 8.625C5.27982 8.625 5 8.90482 5 9.25V12.375C5 12.7202 5.27982 13 5.625 13H9.375C9.72018 13 10 12.7202 10 12.375V9.25C10 8.90482 9.72018 8.625 9.375 8.625H5.625ZM6.25 9.875H8.75V11.75H6.25V9.875Z" fill="black"/>
</svg>
