<svg width="20" height="18" viewBox="0 0 20 18" fill="none" xmlns="http://www.w3.org/2000/svg">
<path d="M4.75 0C4.33579 0 4 0.335786 4 0.75H1C0.585786 0.75 0.25 1.08579 0.25 1.5V4.5V5.25V16.5C0.25 16.9142 0.585786 17.25 1 17.25H19C19.4142 17.25 19.75 16.9142 19.75 16.5V4.5V3.75V1.5C19.75 1.08579 19.4142 0.75 19 0.75H16C16 0.335786 15.6642 0 15.25 0C14.8358 0 14.5 0.335786 14.5 0.75H5.5C5.5 0.335786 5.16421 0 4.75 0ZM1.75 2.25H4C4 2.66421 4.33579 3 4.75 3C5.16421 3 5.5 2.66421 5.5 2.25H14.5C14.5 2.66421 14.8358 3 15.25 3C15.6642 3 16 2.66421 16 2.25H18.25V3.75H1.75V2.25ZM1.75 5.25H18.25V15.75H1.75V5.25ZM11.5 7.5C11.0858 7.5 10.75 7.83579 10.75 8.25V12.75C10.75 13.1642 11.0858 13.5 11.5 13.5H16C16.4142 13.5 16.75 13.1642 16.75 12.75V8.25C16.75 7.83579 16.4142 7.5 16 7.5H11.5ZM4.3 8.25C4.13431 8.25 4 8.38431 4 8.55V9.45C4 9.61569 4.13431 9.75 4.3 9.75H5.2C5.36569 9.75 5.5 9.61569 5.5 9.45V8.55C5.5 8.38431 5.36569 8.25 5.2 8.25H4.3ZM7.3 8.25C7.13431 8.25 7 8.38431 7 8.55V9.45C7 9.61569 7.13431 9.75 7.3 9.75H8.2C8.36569 9.75 8.5 9.61569 8.5 9.45V8.55C8.5 8.38431 8.36569 8.25 8.2 8.25H7.3ZM12.25 9H15.25V12H12.25V9ZM4.3 11.25C4.13431 11.25 4 11.3843 4 11.55V12.45C4 12.6157 4.13431 12.75 4.3 12.75H5.2C5.36569 12.75 5.5 12.6157 5.5 12.45V11.55C5.5 11.3843 5.36569 11.25 5.2 11.25H4.3ZM7.3 11.25C7.13431 11.25 7 11.3843 7 11.55V12.45C7 12.6157 7.13431 12.75 7.3 12.75H8.2C8.36569 12.75 8.5 12.6157 8.5 12.45V11.55C8.5 11.3843 8.36569 11.25 8.2 11.25H7.3Z" fill="black"/>
</svg>
