<svg width="14" height="18" viewBox="0 0 14 18" fill="none" xmlns="http://www.w3.org/2000/svg">
<path d="M1.375 0.875C1.02982 0.875 0.75 1.15482 0.75 1.5V16.5C0.75 16.8452 1.02982 17.125 1.375 17.125H12.625C12.9702 17.125 13.25 16.8452 13.25 16.5V5.25C13.25 5.08654 13.1895 4.92887 13.0801 4.80737L13.0742 4.80078L9.32422 1.05078L9.31763 1.04485C9.19613 0.935505 9.03846 0.875 8.875 0.875H1.375ZM2 2.125H8.25V5.25C8.25 5.59518 8.52982 5.875 8.875 5.875H12V15.875H2V2.125ZM9.5 3.02344L11.1016 4.625H9.5V3.02344ZM4.5 7.125C4.15482 7.125 3.875 7.40482 3.875 7.75C3.875 8.09518 4.15482 8.375 4.5 8.375H9.5C9.84518 8.375 10.125 8.09518 10.125 7.75C10.125 7.40482 9.84518 7.125 9.5 7.125H4.5ZM4.5 9.625C4.15482 9.625 3.875 9.90482 3.875 10.25C3.875 10.5952 4.15482 10.875 4.5 10.875H9.5C9.84518 10.875 10.125 10.5952 10.125 10.25C10.125 9.90482 9.84518 9.625 9.5 9.625H4.5ZM4.5 12.125C4.15482 12.125 3.875 12.4048 3.875 12.75C3.875 13.0952 4.15482 13.375 4.5 13.375H9.5C9.84518 13.375 10.125 13.0952 10.125 12.75C10.125 12.4048 9.84518 12.125 9.5 12.125H4.5Z" fill="black"/>
</svg>
