<svg width="17" height="18" viewBox="0 0 17 18" fill="none" xmlns="http://www.w3.org/2000/svg">
<path d="M8 0.875C4.22159 0.875 1.125 3.97159 1.125 7.75V8.70703C0.746943 9.113 0.5 9.64414 0.5 10.25C0.5 11.2466 1.14239 12.0047 1.98438 12.418C2.69379 15.0844 5.09629 17.125 8 17.125C10.0449 17.125 11.8522 16.168 12.9805 14.625H13C14.2085 14.625 15.2084 13.7722 15.4414 12.6328C15.5645 12.5762 15.6766 12.4952 15.7734 12.3984C16.0091 12.1628 16.125 11.8264 16.125 11.5V8.375C16.125 8.04861 16.0091 7.71221 15.7734 7.47656C15.5378 7.24092 15.2014 7.125 14.875 7.125H14.8359C14.5179 3.6352 11.5684 0.875 8 0.875ZM8 2.125C10.729 2.125 13.0031 4.09006 13.5078 6.67578C13.3943 6.63289 13.281 6.60327 13.1758 6.57812C12.7319 6.47209 12.3021 6.44271 11.9062 6.34375C11.5104 6.24479 11.1916 6.10253 10.9492 5.79688C10.7068 5.49122 10.5 4.97059 10.5 4H9.25C9.25 5.23295 8.89694 5.7287 8.37109 6.05078C7.84525 6.37286 7.01087 6.48114 6.10547 6.5C5.20007 6.51886 4.26766 6.44843 3.42969 6.61719C3.07608 6.6884 2.71477 6.80036 2.41406 7.02734C2.77313 4.27195 5.14991 2.125 8 2.125ZM9.83594 6.36328C9.88166 6.43347 9.92206 6.51431 9.97266 6.57812C10.4334 7.15919 11.0521 7.41927 11.5938 7.55469C12.1354 7.6901 12.6431 7.72713 12.9023 7.78906C12.984 7.80858 12.9801 7.81653 13 7.82812V12.125V12.75H13.625H14.0938C13.8924 13.1343 13.5063 13.375 13 13.375H9.19141C9.06401 13.0085 8.7224 12.75 8.3125 12.75C7.79473 12.75 7.375 13.1697 7.375 13.6875C7.375 14.2053 7.79473 14.625 8.3125 14.625H11.3203C10.4512 15.4107 9.29196 15.875 8 15.875C5.61289 15.875 3.61652 14.1489 3.11719 11.9297L3.03906 11.5781L2.6875 11.4609C2.10533 11.2818 1.75 10.8571 1.75 10.25C1.75 9.72596 2.16843 9.19661 2.53125 9.09766L3 8.98047V8.49219C3 8.2163 3.05584 8.14189 3.13672 8.0625C3.2176 7.98311 3.37992 7.90488 3.66406 7.84766C4.23234 7.73321 5.17493 7.7702 6.14453 7.75C7.11413 7.7298 8.15475 7.64472 9.03516 7.10547C9.33864 6.91959 9.61461 6.66862 9.83594 6.36328ZM14.25 8.375H14.875V11.5H14.25V8.375ZM5.8125 9C5.29473 9 4.875 9.41973 4.875 9.9375C4.875 10.4553 5.29473 10.875 5.8125 10.875C6.33027 10.875 6.75 10.4553 6.75 9.9375C6.75 9.41973 6.33027 9 5.8125 9ZM10.1875 9C9.66973 9 9.25 9.41973 9.25 9.9375C9.25 10.4553 9.66973 10.875 10.1875 10.875C10.7053 10.875 11.125 10.4553 11.125 9.9375C11.125 9.41973 10.7053 9 10.1875 9Z" fill="black"/>
</svg>
