<svg width="16" height="18" viewBox="0 0 16 18" fill="none" xmlns="http://www.w3.org/2000/svg">
<path d="M8 0C4.91668 0 2.4 2.57388 2.4 5.72727C2.4 7.68523 3.37631 9.42366 4.85 10.4574C2.21621 11.6033 0.322066 14.1599 0.0372289 17.2008C-0.00397591 17.6407 0.358172 18 0.8 18C1.24183 18 1.59503 17.6402 1.64569 17.2013C2.02289 13.933 4.69138 11.4545 8 11.4545C11.3086 11.4545 13.9771 13.933 14.3543 17.2013C14.405 17.6402 14.7582 18 15.2 18C15.6418 18 16.004 17.6407 15.9628 17.2008C15.6779 14.1599 13.7838 11.6033 11.15 10.4574C12.6237 9.42366 13.6 7.68523 13.6 5.72727C13.6 2.57388 11.0833 0 8 0ZM8 1.63636C10.2186 1.63636 12 3.45824 12 5.72727C12 7.99631 10.2186 9.81818 8 9.81818C5.78139 9.81818 4 7.99631 4 5.72727C4 3.45824 5.78139 1.63636 8 1.63636Z" fill="black"/>
</svg>
