<svg width="10" height="10" viewBox="0 0 10 10" fill="none" xmlns="http://www.w3.org/2000/svg">
<path d="M0.813088 9.18712C1.07796 9.45199 1.5074 9.45199 1.77227 9.18712L5.00016 5.95922L8.22806 9.18712C8.49293 9.45199 8.92237 9.45199 9.18724 9.18712C9.45211 8.92225 9.45211 8.4928 9.18724 8.22793L5.95935 5.00004L9.18724 1.77215C9.45211 1.50728 9.45211 1.07784 9.18724 0.812966C8.92237 0.548095 8.49293 0.548095 8.22805 0.812966L5.00016 4.04086L1.77227 0.812966C1.5074 0.548094 1.07796 0.548095 0.813088 0.812966C0.548217 1.07784 0.548217 1.50728 0.813088 1.77215L4.04098 5.00004L0.813088 8.22793C0.548216 8.4928 0.548217 8.92225 0.813088 9.18712Z" fill="#6E6E6E"/>
</svg>
